<svg xmlns="http://www.w3.org/2000/svg" width="40" height="40" viewBox="0 0 40 40">
  <defs>
    <style>
      .cls-1 {
        fill: #6a97b5;
      }

      .cls-1, .cls-10, .cls-12, .cls-2, .cls-3, .cls-4, .cls-5, .cls-6, .cls-7, .cls-8, .cls-9 {
        stroke: #000;
        stroke-width: 0.5px;
      }

      .cls-1, .cls-10, .cls-11, .cls-12, .cls-2, .cls-3, .cls-4, .cls-5, .cls-6, .cls-7, .cls-8, .cls-9 {
        fill-rule: evenodd;
      }

      .cls-2 {
        fill: #e9eced;
      }

      .cls-3 {
        fill: #729cb2;
      }

      .cls-4 {
        fill: #83b1cb;
      }

      .cls-5 {
        fill: #86b4cd;
      }

      .cls-6 {
        fill: #fff;
      }

      .cls-8 {
        fill: #bf8498;
      }

      .cls-9 {
        fill: #e1c489;
      }

      .cls-10 {
        fill: #f2de99;
        stroke-linecap: round;
      }

      .cls-11 {
        fill: #d7c279;
      }

      .cls-12 {
        fill: #9dc6df;
      }
    </style>
  </defs>
  <path id="形状_12_拷贝" data-name="形状 12 拷贝" class="cls-1" d="M23.262,29.945s0.8,2.1,1.206,2.143L24.6,30.615s0.669,1.724,1.474,1.875c0,0,.11-1.873.134-1.875a6.506,6.506,0,0,0,1.072.938,28.1,28.1,0,0,1,.67-3.751A40.8,40.8,0,0,0,23.262,29.945Z"/>
  <path id="形状_12" data-name="形状 12" class="cls-1" d="M19.511,30.213a3.193,3.193,0,0,0,1.072,1.206l-0.134-.67a4.539,4.539,0,0,0,.938,1.607s0.19-1.658.4-1.473a1.347,1.347,0,0,0,.536.67s0.257-1.776.4-1.608C22.726,29.945,19.611,29.929,19.511,30.213Z"/>
  <path id="形状_13" data-name="形状 13" class="cls-2" d="M8.928,28.606L9.2,27.266l7.368,1.875L16.3,30.615l-4.286.134L8.794,29.276Z"/>
  <path id="形状_11_拷贝_4" data-name="形状 11 拷贝 4" class="cls-3" d="M8.648,36.123l-0.255-.418,0.134-.8,3.483-5.492s-0.572,1.181,2.813.536a31.472,31.472,0,0,1-3.841,5.749A2.415,2.415,0,0,1,8.648,36.123Z"/>
  <path id="形状_11" data-name="形状 11" class="cls-4" d="M7.93,35.746l-0.341.228c-2.456,1.206-2.813-.268-2.813-0.67a8.963,8.963,0,0,1,1.875-3.483,17.384,17.384,0,0,0,2.277-3.483,2.107,2.107,0,0,0,3.081,1.206S9.831,34.261,7.93,35.746Z"/>
  <path id="形状_11_拷贝_2" data-name="形状 11 拷贝 2" class="cls-3" d="M16.2,30.03l0.225,0.451-1.741,2.947a3.181,3.181,0,0,1-2.947,1.34c-0.074.082,0.121,0.159,0.049,0.233l-0.183.035,0.268-.8,2.81-4.471C14.618,29.977,14.773,30.248,16.2,30.03Zm-1.519-.269a0.628,0.628,0,0,1,.137-0.218Z"/>
  <path id="形状_4" data-name="形状 4" class="cls-5" d="M18.171,6.235a4.337,4.337,0,0,0-.938-3.215s0.2-2.478,4.822-2.679a10.539,10.539,0,0,1,7.635,3.081,5.729,5.729,0,0,0-3.483-.938c-0.584.02-3.427-.009-4.688,0.8-1.325.853-2.127,3.649-2.277,3.483C19.193,6.716,18.171,6.235,18.171,6.235Z"/>
  <path id="形状_5" data-name="形状 5" class="cls-6" d="M19.109,5.7S21.52-.529,29.424,3.154c0,0,2.111,1.208-.134,2.411-2.752,1.475-2.953,4-2.411,4.688a18.227,18.227,0,0,0,3.215,3.885C31.567,15.411,32.1,15.21,32.1,15.21a19.01,19.01,0,0,1,3.081.4c0.234,0.2,1.072,2.143-.67,4.554s-3.985,4.153-5.224,4.019-3.751-.938-5.09-4.688a25.1,25.1,0,0,0,.938-4.822,38.054,38.054,0,0,0,.134-4.153,29.312,29.312,0,0,1-4.019-1.875A4.91,4.91,0,0,1,19.109,5.7Z"/>
  <path id="椭圆_1" data-name="椭圆 1" class="cls-7" d="M21.042,5.253a1.6,1.6,0,0,1,1.468-1.5,1.569,1.569,0,0,1,.947,1.795ZM23.4,6.007a1.622,1.622,0,0,1-1.478,1.54,1.588,1.588,0,0,1-.945-1.839Z"/>
  <path id="形状_3" data-name="形状 3" class="cls-8" d="M5.446,11.861s-0.67-1.038,4.287-.67,5.224-1.373,5.76-1.072,6.7,0.67,6.7.67h2.679l-2.277,1.473-4.956.67h-6.3l-2.813.134-1.875-.536Z"/>
  <path id="形状_2" data-name="形状 2" class="cls-9" d="M1.427,12s-0.469-1.54,4.956-1.34c0,0,5.76.77,7.769-.67l0.268-.268,0.938,0.4a5.458,5.458,0,0,1-3.483,1.474s-4.019-.268-4.688-0.134a3.053,3.053,0,0,0-1.474.268A6.758,6.758,0,0,0,2.1,12,1.118,1.118,0,0,1,1.427,12Z"/>
  <path id="形状_1_拷贝" data-name="形状 1 拷贝" class="cls-10" d="M18.439,5.7a5.88,5.88,0,0,1-4.153,1.607c-2.679,0-11.353-1.473-11.52.67,0,0,4.086.368,5.09,1.206s4.454,0.4,4.688.4,3.7,0.372,4.822,1.072c2.07,1.286,6.865.4,7.368,0a12.41,12.41,0,0,1-4.688,1.474,26.043,26.043,0,0,1-4.287-.268s-3.215-.2-4.286.268S6.35,12.2,6.249,12a2.08,2.08,0,0,0-1.34-.536A6.468,6.468,0,0,0,1.829,12c-0.508.256-.255,0.322-0.255,0.322s-0.415.314-.147,1.821,0.636,5.894,3.483,9.511c3.239,4.115,6.2,7.138,15.9,6.7,8.908-.4,14.241-9.614,14.241-11.389,0,0-2.746,5.258-6.564,4.287s-3.952-3.181-4.019-4.153c0,0,1.574-7.2,1.072-8.573,0,0-4.238-2.1-4.956-2.545a6.058,6.058,0,0,1-1.473-2.143A1.393,1.393,0,0,1,18.439,5.7Z"/>
  <path id="形状_9" data-name="形状 9" class="cls-11" d="M20.408,30.35c-8.681.4-12.475-2.983-15.144-6.425C20.228,32.169,25.4,12.8,25.4,12.8l0.128,0.147c-0.287,2.591-1.065,6.149-1.065,6.149,0.067,0.971.2,3.181,4.019,4.153s6.564-4.287,6.564-4.287C34.847,20.883,29.161,29.944,20.408,30.35Z"/>
  <path id="形状_7_拷贝_3" data-name="形状 7 拷贝 3" class="cls-6" d="M25.807,16.148s0.67,12.826,1.206,13.663,1,4.421,3.349,2.411c0,0,3.32.76,3.617-1.607,0,0,3.5.944,0.8-2.813-2.173-3.025-3.619-8.293-5.09-11.654"/>
  <path id="形状_7_拷贝_2" data-name="形状 7 拷贝 2" class="cls-12" d="M38.131,37.849a2.359,2.359,0,0,1-.22,1.022A6.727,6.727,0,0,1,35.452,35.3l-1.608-3.885s-0.368-1.641.938-2.143a1.9,1.9,0,0,1,.95-0.133c2.393,3.417,4.676,6.964,4.676,6.964C40.508,39.088,38.131,37.849,38.131,37.849Z"/>
  <path id="形状_7_拷贝" data-name="形状 7 拷贝" class="cls-12" d="M38,37.045a4.286,4.286,0,0,1,.2.837c-0.044-.02-0.069-0.033-0.069-0.033-0.067,2.78-2.947,1.34-2.947,1.34a0.814,0.814,0,0,1-.057.1,6.7,6.7,0,0,1-2.488-3.584l-1.607-3.885s-0.368-1.641.938-2.143a1.687,1.687,0,0,1,2.143.67C34.313,30.615,38,37.045,38,37.045Z"/>
  <path id="形状_7" data-name="形状 7" class="cls-12" d="M35.21,39.2l-0.026-.012a5.206,5.206,0,0,1-.8.938c-1.773,1.519-4.847-4.6-6.473-8.038a1.564,1.564,0,0,1,.98-1.473,1.5,1.5,0,0,1,2.009.4c0.2,0.268,4.019,6.966,4.019,6.966A3.514,3.514,0,0,1,35.21,39.2Z"/>
</svg>
