<svg xmlns="http://www.w3.org/2000/svg" width="100" height="100" viewBox="0 0 100 100">
  <defs>
    <style>
      .cls-1 {
        fill: #6a97b5;
      }

      .cls-1, .cls-10, .cls-11, .cls-13, .cls-2, .cls-3, .cls-4, .cls-5, .cls-6, .cls-8 {
        stroke: #000;
        stroke-width: 1px;
      }

      .cls-1, .cls-10, .cls-11, .cls-12, .cls-13, .cls-2, .cls-3, .cls-4, .cls-5, .cls-6, .cls-7, .cls-8, .cls-9 {
        fill-rule: evenodd;
      }

      .cls-2 {
        fill: #e9eced;
      }

      .cls-3 {
        fill: #729cb2;
      }

      .cls-4 {
        fill: #83b1cb;
      }

      .cls-5 {
        fill: #86b4cd;
      }

      .cls-6 {
        fill: #fff;
      }

      .cls-8 {
        fill: none;
      }

      .cls-9 {
        fill: #bf8498;
      }

      .cls-10 {
        fill: #e1c489;
      }

      .cls-11 {
        fill: #f2de99;
        stroke-linecap: round;
      }

      .cls-12 {
        fill: #d7c279;
      }

      .cls-13 {
        fill: #9dc6df;
      }
    </style>
  </defs>
  <path id="形状_12_拷贝" data-name="形状 12 拷贝" class="cls-1" d="M56.123,73.991s2.006,5.237,3.009,5.349l0.334-3.677s1.669,4.3,3.677,4.68c0,0,.273-4.673.334-4.68A16.229,16.229,0,0,0,66.151,78s1.31-9.779,1.671-9.36C67.823,68.642,56.373,73.28,56.123,73.991Z"/>
  <path id="形状_12" data-name="形状 12" class="cls-1" d="M46.763,74.659s1.671,2.9,2.674,3.009L49.1,76s1.142,3.174,2.34,4.011c0,0,.474-4.138,1-3.677A3.361,3.361,0,0,0,53.783,78s0.641-4.431,1-4.011C54.785,73.991,47.013,73.949,46.763,74.659Z"/>
  <path id="形状_13" data-name="形状 13" class="cls-2" d="M20.354,70.648L21.022,67.3l18.386,4.68L38.74,75.662,28.042,76l-8.023-3.677Z"/>
  <path id="形状_11_拷贝_4" data-name="形状 11 拷贝 4" class="cls-3" d="M19.654,89.407l-0.637-1.042,0.334-2.006,8.692-13.706s-1.427,2.946,7.02,1.337c0,0-5.084,9.718-9.585,14.347C22.96,90.081,20.951,89.913,19.654,89.407Z"/>
  <path id="形状_11" data-name="形状 11" class="cls-4" d="M17.863,88.466l-0.852.568c-6.129,3.009-7.02-.669-7.02-1.672s2.34-6.351,4.68-8.692c1.863-1.863,4.569-6.455,5.683-8.691,0.686,1.72,3.264,5.405,7.689,3.009C28.042,72.988,22.607,84.761,17.863,88.466Z"/>
  <path id="形状_11_拷贝_2" data-name="形状 11 拷贝 2" class="cls-3" d="M38.511,74.2l0.563,1.125-4.346,7.354a7.939,7.939,0,0,1-7.354,3.343c-0.184.2,0.3,0.4,0.123,0.581l-0.458.088,0.669-2.006L34.721,73.53C34.553,74.07,34.938,74.746,38.511,74.2Zm-3.79-.672a1.567,1.567,0,0,1,.341-0.543Z"/>
  <path id="形状_4" data-name="形状 4" class="cls-5" d="M43.42,14.822s0.669-4.68-2.34-8.023c0,0,.5-6.184,12.034-6.686S72.168,7.8,72.168,7.8a14.3,14.3,0,0,0-8.692-2.34c-1.458.049-8.551-.023-11.7,2.006-3.306,2.129-5.308,9.107-5.683,8.691C45.969,16.02,43.42,14.822,43.42,14.822Z"/>
  <path id="形状_5" data-name="形状 5" class="cls-6" d="M45.76,13.484S51.777-2.06,71.5,7.133c0,0,5.269,3.014-.334,6.017-6.868,3.68-7.368,9.972-6.017,11.7a45.5,45.5,0,0,0,8.023,9.694c3.677,3.176,5.014,2.674,5.014,2.674s7.1,0.5,7.689,1S88.549,43.57,84.2,49.588,74.258,59.951,71.166,59.616s-9.36-2.34-12.7-11.7A62.612,62.612,0,0,0,60.8,35.882a94.978,94.978,0,0,0,.334-10.363s-9.193-3.677-10.029-4.68S46.846,18.5,45.76,13.484Z"/>
  <path id="椭圆_1" data-name="椭圆 1" class="cls-7" d="M50.56,13.1c0.468-2.041,1.838-3.473,3.2-3.261,1.322,0.206,2.178,1.9,2.063,3.908Zm5.128,1.642c-0.447,2.091-1.837,3.57-3.218,3.355-1.343-.21-2.206-1.95-2.057-4Z"/>
  <path id="形状_8" data-name="形状 8" class="cls-8" d="M48.1,17.5s-0.065-10.807,6.686-9.36c5.85,1.254,2.006,11.032,2.006,11.032"/>
  <path id="形状_3" data-name="形状 3" class="cls-9" d="M11.662,28.862s-1.671-2.591,10.7-1.671S35.4,23.764,36.734,24.516s16.715,1.672,16.715,1.672h6.686l-5.683,3.677L42.082,31.536H26.371l-7.02.334-4.68-1.337Z"/>
  <path id="形状_2" data-name="形状 2" class="cls-10" d="M1.633,29.2S0.463,25.352,14,25.853c0,0,14.374,1.922,19.389-1.671l0.669-.669,2.34,1s-2.841,3.176-8.692,3.677c0,0-10.029-.669-11.7-0.334s-2.256-.251-3.677.669A16.866,16.866,0,0,0,3.3,29.2S1.968,29.53,1.633,29.2Z"/>
  <path id="形状_1_拷贝" data-name="形状 1 拷贝" class="cls-11" d="M44.088,13.484A14.674,14.674,0,0,1,33.725,17.5c-6.686,0-28.331-3.677-28.749,1.671,0,0,10.2.919,12.7,3.009s11.115,1,11.7,1,9.226,0.929,12.034,2.674c5.165,3.209,17.132,1,18.386,0,0,0-6.268,3.51-11.7,3.677a65,65,0,0,1-10.7-.669s-8.023-.5-10.7.669S13.919,29.7,13.668,29.2s-1.651-1.126-3.343-1.337A16.142,16.142,0,0,0,2.636,29.2C1.37,29.834,2,30,2,30s-1.035.784-.367,4.544,1.588,14.709,8.692,23.735C18.408,68.549,25.791,76.092,50,75c22.23-1,35.54-23.992,35.54-28.421,0,0-6.853,13.121-16.38,10.7S59.3,49.337,59.131,46.913c0,0,3.928-17.968,2.674-21.395,0,0-10.575-5.243-12.369-6.351-1.877-1.16-3.677-5.349-3.677-5.349S44.22,13.8,44.088,13.484Z"/>
  <path id="形状_9" data-name="形状 9" class="cls-12" d="M49,75c-21.665,1-31.132-7.444-37.793-16.034C48.553,79.541,61.471,31.2,61.471,31.2l0.319,0.368c-0.718,6.465-2.659,15.344-2.659,15.344,0.167,2.424.5,7.939,10.029,10.363s16.38-10.7,16.38-10.7C85.033,51.375,70.846,73.987,49,75Z"/>
  <path id="形状_7_拷贝_3" data-name="形状 7 拷贝 3" class="cls-6" d="M62.474,39.559s1.671,32.008,3.009,34.1,2.507,11.031,8.357,6.017c0,0,8.286,1.9,9.026-4.011,0,0,8.744,2.357,2.006-7.02-5.424-7.548-9.031-20.7-12.7-29.083"/>
  <path id="形状_7_拷贝_2" data-name="形状 7 拷贝 2" class="cls-13" d="M93.229,93.714a5.881,5.881,0,0,1-.548,2.551c-4.433-2.665-6.138-8.9-6.138-8.9l-4.011-9.694s-0.919-4.1,2.34-5.349a4.737,4.737,0,0,1,2.372-.331c5.972,8.528,11.668,17.38,11.668,17.38C99.162,96.806,93.229,93.714,93.229,93.714Z"/>
  <path id="形状_7_拷贝" data-name="形状 7 拷贝" class="cls-13" d="M92.894,91.708A10.685,10.685,0,0,1,93.4,93.8c-0.109-.049-0.172-0.082-0.172-0.082-0.167,6.936-7.354,3.343-7.354,3.343a2,2,0,0,1-.142.253c-4.486-2.64-6.209-8.945-6.209-8.945l-4.011-9.694s-0.919-4.095,2.34-5.349A4.21,4.21,0,0,1,83.2,74.994C83.7,75.662,92.894,91.708,92.894,91.708Z"/>
  <path id="形状_7" data-name="形状 7" class="cls-13" d="M85.939,97.088l-0.065-.031a12.985,12.985,0,0,1-2.006,2.34c-4.424,3.791-12.1-11.481-16.153-20.059a3.9,3.9,0,0,1,2.447-3.676c3.259-1.254,4.513.334,5.014,1S85.206,94.048,85.206,94.048A8.765,8.765,0,0,1,85.939,97.088Z"/>
</svg>
